<?xml version="1.0" standalone="no"?>
<!DOCTYPE svg PUBLIC "-//W3C//DTD SVG 20010904//EN"
 "http://www.w3.org/TR/2001/REC-SVG-20010904/DTD/svg10.dtd">
<svg version="1.0" xmlns="http://www.w3.org/2000/svg"
 width="820.000000pt" height="820.000000pt" viewBox="0 0 820.000000 820.000000"
 preserveAspectRatio="xMidYMid meet">
<metadata>
Created by potrace 1.11, written by Peter Selinger 2001-2013
</metadata>
<g transform="translate(0.000000,820.000000) scale(0.100000,-0.100000)"
fill="#000000" stroke="none">
<path d="M3157 7964 c-1 -2 -29 -6 -62 -9 -75 -7 -133 -14 -165 -20 -25 -4
-82 -12 -139 -20 -17 -2 -34 -6 -38 -8 -5 -3 -29 -8 -53 -12 -140 -20 -501
-137 -522 -169 -4 -6 -8 -7 -8 -3 0 10 -86 -49 -116 -79 -81 -80 -59 -168 70
-272 49 -40 281 -151 291 -140 3 2 1 18 -4 34 -15 53 -6 185 16 235 37 83 118
155 205 180 30 8 118 21 143 21 100 -3 210 -36 293 -89 184 -117 267 -313 228
-538 -4 -22 -8 -48 -9 -58 -1 -13 22 -30 88 -65 50 -26 93 -51 96 -55 3 -5 9
-8 12 -8 14 1 332 -200 347 -219 3 -3 23 -19 45 -36 22 -16 45 -33 51 -39 6
-5 33 -28 59 -50 62 -52 174 -164 227 -227 24 -28 48 -56 53 -62 10 -12 82
-120 129 -193 14 -24 24 -43 20 -43 -3 0 4 -13 15 -29 12 -16 21 -36 21 -44 0
-9 4 -18 9 -21 5 -3 11 -16 14 -28 26 -112 87 -227 122 -228 6 0 22 -11 37
-25 15 -14 29 -25 32 -25 12 0 249 -170 254 -182 2 -5 8 -8 13 -8 5 0 31 -17
58 -37 27 -21 61 -47 76 -58 16 -11 33 -24 39 -30 6 -5 36 -29 67 -52 141
-107 313 -276 334 -327 14 -34 14 -40 -2 -74 -34 -74 -145 -164 -335 -272 -68
-38 -129 -74 -135 -80 -7 -6 -13 -8 -13 -5 0 3 -37 -14 -82 -38 -87 -45 -297
-142 -328 -152 -3 -1 -23 -9 -45 -19 -61 -27 -91 -35 -169 -42 -39 -3 -73 -8
-76 -9 -3 -1 -14 1 -25 5 -11 4 -30 3 -43 -1 -13 -5 -21 -6 -19 -1 3 4 -27 8
-67 9 -75 2 -211 19 -261 33 -16 5 -43 11 -60 14 -16 2 -45 9 -63 15 -18 5
-36 11 -40 12 -9 2 -18 5 -76 24 -26 8 -69 25 -95 37 -106 48 -176 79 -181 80
-3 0 -15 4 -28 9 -13 5 -29 9 -37 9 -8 0 -16 4 -20 10 -3 5 -20 14 -38 19 -18
5 -81 28 -142 51 -126 49 -350 129 -380 137 -11 2 -29 9 -40 13 -20 9 -238 80
-259 85 -6 1 -18 5 -26 8 -14 5 -51 16 -240 71 -82 24 -234 64 -274 72 -10 2
-42 10 -70 18 -28 8 -69 17 -91 22 -22 4 -44 8 -50 10 -23 6 -233 46 -265 50
-19 2 -46 6 -60 9 -24 5 -88 13 -160 20 -19 2 -57 7 -85 10 -69 9 -369 9 -430
1 -27 -4 -61 -9 -75 -11 -14 -2 -50 -9 -80 -15 -30 -6 -60 -13 -67 -14 -7 -1
-16 -5 -19 -9 -4 -4 -13 -7 -19 -7 -7 0 -30 -8 -51 -17 -22 -9 -41 -17 -44
-18 -16 -5 -46 -19 -50 -24 -3 -4 -24 -19 -48 -34 -197 -128 -290 -406 -208
-622 38 -100 50 -125 58 -125 5 0 8 -6 8 -14 0 -13 43 -94 89 -167 9 -15 33
-55 54 -90 21 -35 64 -104 97 -154 82 -127 253 -392 265 -413 6 -9 12 -19 15
-22 10 -10 31 -45 36 -62 4 -10 10 -18 13 -18 4 0 17 -19 30 -43 12 -23 40
-69 61 -102 22 -33 44 -69 49 -80 5 -11 30 -55 55 -98 25 -43 46 -82 46 -87 0
-6 3 -10 8 -10 4 0 12 -10 18 -23 6 -12 49 -98 97 -192 47 -93 97 -199 111
-235 27 -66 32 -76 59 -140 14 -32 76 -211 81 -235 2 -5 8 -30 15 -55 7 -25
15 -52 17 -60 2 -8 8 -35 15 -60 38 -157 53 -289 52 -480 0 -162 -7 -227 -37
-352 -7 -32 -11 -58 -7 -58 3 0 -28 -20 -69 -45 -77 -45 -166 -124 -211 -185
-30 -41 -79 -142 -85 -176 -2 -13 -8 -34 -12 -46 -7 -20 -8 -63 -3 -105 2 -22
30 -41 83 -57 156 -46 328 -60 738 -59 302 0 420 4 420 13 0 3 21 5 48 6 79 1
215 24 300 51 45 14 55 22 68 52 19 43 54 140 59 161 2 8 4 15 5 15 1 0 3 7 5
15 1 8 10 49 19 90 22 102 25 124 32 210 8 94 11 320 4 320 -3 0 -6 21 -6 48
-2 46 -10 131 -18 182 -3 14 -7 43 -11 65 -5 34 -12 69 -21 110 -1 6 -5 26 -9
45 -19 108 -80 332 -141 519 -13 41 -22 76 -21 78 2 1 13 -16 25 -40 30 -58
56 -101 64 -107 4 -3 17 -21 30 -40 51 -74 101 -145 107 -150 3 -3 11 -12 16
-21 6 -9 29 -44 53 -77 23 -34 42 -66 42 -71 0 -6 4 -11 8 -11 5 0 14 -16 22
-35 8 -19 17 -35 22 -35 4 0 8 -8 8 -18 0 -10 4 -22 8 -27 22 -25 77 -194 87
-265 2 -14 4 -25 5 -25 7 0 23 -162 24 -232 1 -35 3 -63 6 -63 8 0 4 -105 -4
-118 -4 -7 -3 -12 1 -12 5 0 7 -15 5 -32 -3 -25 -13 -39 -40 -56 -31 -19 -62
-43 -117 -90 -31 -27 -107 -124 -111 -142 0 -3 -6 -18 -13 -35 -17 -38 -24
-137 -12 -168 17 -45 201 -81 470 -92 62 -2 115 -6 118 -9 2 -2 17 -1 32 4 16
4 34 4 42 0 7 -5 21 -4 31 1 10 5 18 6 18 2 0 -4 14 -8 30 -8 17 0 30 4 30 8
0 5 5 5 11 2 15 -10 69 -12 69 -3 0 4 8 4 17 1 10 -4 31 -6 48 -5 16 0 93 3
170 6 77 3 172 8 210 11 39 3 102 8 140 10 39 3 86 8 105 11 19 3 49 7 65 9
162 16 206 38 278 136 26 36 90 155 93 174 1 6 11 35 23 65 11 30 29 93 40
140 28 118 29 122 47 275 2 22 6 108 9 190 4 144 5 154 39 237 53 132 175 361
219 413 4 6 33 44 64 85 50 68 128 163 161 196 6 7 12 15 12 19 0 3 12 18 28
33 15 16 43 48 62 72 50 65 63 81 81 99 8 9 33 41 54 71 22 30 42 57 45 60 4
3 10 14 13 24 4 10 10 17 12 14 3 -3 -11 -54 -31 -114 -19 -60 -37 -116 -39
-124 -2 -8 -4 -15 -5 -15 -1 0 -3 -7 -5 -15 -2 -8 -12 -37 -21 -65 -22 -63
-27 -79 -29 -85 0 -3 -13 -41 -27 -85 -24 -73 -67 -216 -73 -240 -1 -5 -7 -28
-13 -50 -6 -22 -14 -58 -17 -80 -8 -54 -12 -76 -19 -105 -3 -14 -8 -52 -11
-85 -3 -33 -7 -76 -10 -95 -5 -41 -16 -142 -20 -185 -1 -16 -5 -56 -9 -87 -3
-32 -9 -84 -12 -115 -7 -65 -12 -95 -16 -97 -2 -1 -21 -10 -42 -20 -145 -65
-289 -210 -369 -371 -61 -122 -75 -192 -47 -228 23 -29 155 -68 275 -81 22 -3
40 -5 40 -6 0 -1 14 -3 30 -5 17 -1 50 -5 75 -9 60 -8 127 -15 247 -23 120 -8
843 -8 933 0 132 12 251 27 261 33 3 1 28 6 55 10 27 3 59 10 71 15 13 5 23 6
23 4 0 -5 55 14 122 42 51 22 206 226 428 563 32 48 57 90 74 120 11 19 22 37
25 40 4 3 15 23 26 45 11 22 23 42 26 45 28 24 322 629 333 685 2 10 54 149
71 190 5 11 10 25 11 30 1 6 3 12 4 15 1 3 3 12 5 20 2 8 10 32 19 53 9 20 13
37 10 37 -4 0 -1 7 6 15 7 8 10 15 6 15 -3 0 -1 12 5 28 11 25 37 118 64 219
9 39 57 260 62 288 2 17 6 41 9 55 2 14 7 43 10 65 3 22 8 51 10 65 3 14 7 43
9 65 3 22 7 58 10 80 16 134 20 221 19 490 0 165 -4 332 -7 370 -14 141 -18
181 -22 210 -3 17 -8 48 -11 70 -5 36 -24 146 -39 230 -4 24 -27 123 -50 225
-64 269 -189 608 -329 891 -65 129 -141 264 -163 287 -6 6 -15 21 -18 32 -3
11 -11 20 -16 20 -6 0 -8 4 -5 9 4 5 3 11 -2 13 -4 1 -25 28 -47 58 -169 237
-438 512 -749 767 -47 38 -256 193 -260 193 -3 0 -15 8 -26 18 -24 20 -268
179 -290 189 -8 4 -31 16 -50 28 -19 12 -37 22 -40 21 -3 0 -18 9 -35 20 -114
81 -568 296 -833 396 -94 35 -299 106 -327 113 -5 1 -17 5 -25 8 -54 20 -404
111 -465 120 -16 3 -49 10 -73 16 -23 7 -47 9 -52 6 -5 -3 -11 -1 -15 5 -4 6
-10 8 -14 6 -4 -3 -23 -1 -42 4 -32 8 -65 13 -161 25 -24 3 -57 8 -74 11 -34
5 -108 13 -188 21 -58 5 -604 12 -609 7z"/>
<path d="M3712 6164 c-54 -28 -71 -86 -50 -175 8 -33 53 -88 85 -103 53 -25
90 -21 127 17 102 102 -35 323 -162 261z"/>
</g>
</svg>
