<?xml version="1.0" encoding="UTF-8"?>
<svg width="200px" height="102px" viewBox="0 0 200 102" version="1.1" xmlns="http://www.w3.org/2000/svg" xmlns:xlink="http://www.w3.org/1999/xlink">
    <!-- Generator: sketchtool 54.1 (76490) - https://sketchapp.com -->
    <title>EC9CEB17-79E2-428B-B21D-476B140633E0@1x</title>
    <desc>Created with sketchtool.</desc>
    <defs>
        <polygon id="path-1" points="0 0.000143661972 200 0.000143661972 200 102.000144 0 102.000144"></polygon>
    </defs>
    <g id="Symbols" stroke="none" stroke-width="1" fill="none" fill-rule="evenodd">
        <g id="FC-logo-white">
            <g id="Group-10">
                <mask id="mask-2" fill="white">
                    <use xlink:href="#path-1"></use>
                </mask>
                <g id="Clip-2"></g>
                <path d="M134.628975,0.000143661972 L134.628975,4.22083332 L196.113074,4.22083332 L196.113074,83.7104885 L124.734982,83.7104885 L107.067138,94.6139368 L107.067138,83.7104885 L4.24381625,83.7104885 L4.24381625,46.779454 L0,46.779454 L0,87.9311781 L102.826855,87.9311781 L102.826855,102.000144 L125.795053,87.9311781 L200,87.9311781 L200,0.000143661972 L134.628975,0.000143661972 Z M177.388693,49.5932471 L182.689046,49.5932471 L182.689046,45.3725575 L177.388693,45.3725575 L177.388693,49.5932471 Z M177.388693,70.3484885 L182.689046,70.3484885 L182.689046,52.4070402 L177.388693,52.4070402 L177.388693,70.3484885 Z M171.731449,48.1863506 C172.795053,48.1863506 173.855124,48.1863506 174.561837,48.5380747 L174.911661,45.0208333 C173.855124,44.6691092 172.795053,44.6691092 170.671378,44.6691092 C166.787986,44.6691092 164.664311,46.4277299 164.664311,50.2966954 L164.664311,52.4070402 L162.194346,52.4070402 L162.194346,55.5725575 L164.664311,55.5725575 L164.664311,70.3449712 L169.611307,70.3449712 L169.611307,55.5725575 L173.855124,55.5725575 L173.855124,52.4070402 L169.611307,52.4070402 L169.611307,50.2966954 C169.611307,48.8897988 170.321555,48.1863506 171.731449,48.1863506 L171.731449,48.1863506 Z M153.710247,70.3449712 L159.363958,70.3449712 L159.363958,64.7138678 L153.710247,64.7138678 L153.710247,70.3449712 Z M142.759717,67.5311781 C140.636042,67.5311781 138.162544,66.4760057 136.39576,65.4208333 L134.275618,68.2346264 C136.39576,69.641523 139.226148,70.6966954 142.402827,70.6966954 C146.996466,70.6966954 150.176678,68.9380747 150.176678,65.0691092 C150.176678,61.5518678 147.70318,60.1449712 143.109541,59.441523 C139.929329,58.7380747 139.226148,58.3863506 139.226148,57.3311781 C139.226148,56.2760057 139.929329,55.5725575 142.402827,55.5725575 C144.526502,55.5725575 146.293286,56.2760057 147.70318,57.3311781 L149.469965,54.517385 C147.70318,53.1104885 145.586572,52.4070402 142.402827,52.4070402 C137.102473,52.4070402 134.628975,54.517385 134.628975,58.0346264 C134.628975,61.2001437 136.75265,62.6070402 141.696113,63.6622126 C144.526502,64.0139368 145.586572,64.717385 145.586572,65.7725575 C145.936396,66.8277299 144.876325,67.5311781 142.759717,67.5311781 L142.759717,67.5311781 Z M123.674912,55.2208333 C126.151943,55.2208333 127.208481,56.979454 127.561837,60.1449712 L119.791519,60.1449712 C120.141343,56.6277299 121.201413,55.2208333 123.674912,55.2208333 L123.674912,55.2208333 Z M124.385159,70.6966954 C127.561837,70.6966954 129.685512,69.9932471 132.159011,68.2346264 L130.742049,65.4208333 C128.625442,66.8277299 127.208481,67.179454 125.091873,67.179454 C121.908127,67.179454 120.4947,65.7725575 120.141343,62.6070402 L132.508834,62.6070402 L132.508834,61.2001437 C132.508834,55.5725575 129.328622,51.7035919 124.028269,51.7035919 C118.374558,51.7035919 115.194346,55.5725575 115.194346,61.2001437 C114.840989,67.5311781 118.374558,70.6966954 124.385159,70.6966954 L124.385159,70.6966954 Z M104.240283,67.5311781 C102.120141,67.5311781 99.6501767,66.4760057 97.8833922,65.4208333 L95.7597173,68.2346264 C97.8833922,69.641523 100.706714,70.6966954 103.890459,70.6966954 C108.484099,70.6966954 111.660777,68.9380747 111.660777,65.0691092 C111.660777,61.5518678 109.190813,60.1449712 104.59364,59.441523 C101.416961,58.7380747 100.706714,58.3863506 100.706714,57.3311781 C100.706714,56.2760057 101.416961,55.5725575 103.890459,55.5725575 C106.007067,55.5725575 107.773852,56.2760057 109.190813,57.3311781 L110.957597,54.517385 C109.190813,53.1104885 107.067138,52.4070402 103.890459,52.4070402 C98.5865724,52.4070402 96.1166078,54.517385 96.1166078,58.0346264 C96.1166078,61.2001437 98.2332155,62.6070402 103.183746,63.6622126 C106.007067,64.0139368 107.067138,64.717385 107.067138,65.7725575 C107.773852,66.8277299 106.717314,67.5311781 104.240283,67.5311781 L104.240283,67.5311781 Z M83.0388693,70.3449712 L88.3392226,70.3449712 L88.3392226,58.7380747 C89.7526502,57.3311781 91.8727915,56.6277299 94.6996466,56.6277299 L94.6996466,51.7035919 C91.8727915,51.7035919 90.1060071,52.7587644 87.9858657,55.2208333 L87.6325088,51.7035919 L83.0388693,51.7035919 L83.0388693,70.3449712 Z M61.4840989,52.4070402 L61.4840989,64.3656609 C61.4840989,68.2346264 63.2508834,70.6966954 67.1378092,70.6966954 C69.9646643,70.6966954 71.3816254,69.641523 73.4982332,67.8829023 L73.8515901,70.3449712 L78.4487633,70.3449712 L78.4487633,52.4070402 L73.1484099,52.4070402 L73.1484099,65.4208333 C72.0848057,66.4760057 70.6713781,66.8277299 69.614841,66.8277299 C67.4911661,66.8277299 66.7844523,65.7725575 66.7844523,63.3104885 L66.7844523,52.4070402 L61.4840989,52.4070402 Z M49.1166078,55.2208333 C51.9469965,55.2208333 53.0035336,57.3311781 53.0035336,61.2001437 C53.0035336,65.0691092 51.9469965,67.179454 49.1166078,67.179454 C46.2897527,67.179454 45.229682,65.0691092 45.229682,60.8484195 C45.229682,57.6829023 46.2897527,55.2208333 49.1166078,55.2208333 L49.1166078,55.2208333 Z M49.1166078,70.6966954 C54.770318,70.6966954 58.3038869,66.8277299 58.3038869,61.2001437 C58.3038869,55.5725575 54.770318,51.7035919 49.1166078,51.7035919 C43.4628975,51.7035919 39.9293286,55.5725575 39.9293286,61.2001437 C39.9293286,66.8277299 43.4628975,70.6966954 49.1166078,70.6966954 L49.1166078,70.6966954 Z M27.9151943,70.6966954 C33.2155477,70.6966954 36.0459364,68.2346264 37.4558304,63.6622126 L33.5689046,61.9035919 C32.5123675,65.4208333 30.745583,66.8277299 28.2685512,66.8277299 C24.7349823,66.8277299 22.614841,64.0139368 22.614841,58.0346264 C22.614841,52.0553161 24.7349823,49.241523 27.9151943,49.241523 C30.745583,49.241523 31.8021201,51.0001437 32.5123675,54.1656609 L37.1024735,52.4070402 C36.3957597,48.1863506 33.2155477,45.0208333 27.9151943,45.0208333 C21.2014134,45.0208333 16.6113074,49.9449712 16.6113074,58.0346264 C16.9611307,65.7725575 21.2014134,70.6966954 27.9151943,70.6966954 L27.9151943,70.6966954 Z M122.968198,23.917385 C124.028269,22.8622126 125.441696,22.5104885 126.501767,22.5104885 C128.625442,22.5104885 129.328622,23.5656609 129.328622,26.0277299 L129.328622,36.9311781 L134.628975,36.9311781 L134.628975,24.9725575 C134.628975,21.1035919 132.862191,18.641523 128.975265,18.641523 C126.501767,18.641523 124.734982,19.3449712 122.968198,21.1035919 L122.968198,11.6070402 L117.667845,11.6070402 L117.667845,36.9311781 L122.968198,36.9311781 L122.968198,23.917385 Z M106.360424,34.117385 C104.240283,34.117385 101.766784,33.0622126 100,32.0070402 L97.8833922,34.8208333 C100,36.2277299 102.826855,37.2829023 106.007067,37.2829023 C110.600707,37.2829023 113.784452,35.5242816 113.784452,31.6553161 C113.784452,28.1380747 111.30742,26.7311781 106.717314,26.0277299 C103.533569,25.3242816 102.826855,24.9725575 102.826855,23.917385 C102.826855,22.8622126 103.533569,22.1587644 106.007067,22.1587644 C108.127208,22.1587644 109.893993,22.8622126 111.30742,23.917385 L113.074205,21.1035919 C111.30742,19.6966954 109.190813,18.9932471 106.007067,18.9932471 C100.706714,18.9932471 98.2332155,21.1035919 98.2332155,24.6208333 C98.2332155,27.7863506 100.353357,29.1932471 105.300353,30.2484195 C108.833922,30.2484195 109.540636,30.9518678 109.540636,32.0070402 C109.540636,33.4139368 108.484099,34.117385 106.360424,34.117385 L106.360424,34.117385 Z M89.3992933,36.9311781 L94.6996466,36.9311781 L94.6996466,18.9932471 L89.3992933,18.9932471 L89.3992933,36.9311781 Z M89.3992933,16.179454 L94.6996466,16.179454 L94.6996466,11.9587644 L89.3992933,11.9587644 L89.3992933,16.179454 Z M73.1484099,23.917385 C74.204947,22.8622126 75.6183746,22.5104885 76.6819788,22.5104885 C78.7985866,22.5104885 79.5053004,23.5656609 79.5053004,26.0277299 L79.5053004,36.9311781 L84.8056537,36.9311781 L84.8056537,24.9725575 C84.8056537,21.1035919 83.0388693,18.641523 79.1519435,18.641523 C76.3250883,18.641523 74.9151943,19.6966954 72.7915194,21.4553161 L72.4381625,18.9932471 L67.8480565,18.9932471 L67.8480565,36.9311781 L73.1484099,36.9311781 L73.1484099,23.917385 Z M51.9469965,23.917385 C53.0035336,22.8622126 54.4169611,22.5104885 55.4805654,22.5104885 C57.5971731,22.5104885 58.3038869,23.5656609 58.3038869,26.0277299 L58.3038869,36.9311781 L63.6042403,36.9311781 L63.6042403,24.9725575 C63.6042403,21.1035919 61.8374558,18.641523 57.95053,18.641523 C55.1236749,18.641523 53.7137809,19.6966954 51.590106,21.4553161 L51.2367491,18.9932471 L46.6466431,18.9932471 L46.6466431,36.9311781 L51.9469965,36.9311781 L51.9469965,23.917385 Z M36.7491166,36.9311781 L42.04947,36.9311781 L42.04947,18.9932471 L36.7491166,18.9932471 L36.7491166,36.9311781 Z M36.7491166,16.179454 L42.04947,16.179454 L42.04947,11.9587644 L36.7491166,11.9587644 L36.7491166,16.179454 Z M22.9681979,27.0829023 L31.0954064,27.0829023 L31.0954064,22.8622126 L22.9681979,22.8622126 L22.9681979,16.179454 L33.2155477,16.179454 L33.2155477,11.9587644 L17.6678445,11.9587644 L17.6678445,36.9311781 L22.9681979,36.9311781 L22.9681979,27.0829023 Z" id="Fill-1" fill="#FFFFFF" mask="url(#mask-2)"></path>
            </g>
        </g>
    </g>
</svg>