<svg id="Layer_1" xmlns="http://www.w3.org/2000/svg" width="198" height="60.4" viewBox="0 0 198 60.4"><path style="fill:#FFFFFF;" d="M59.8 17.8C53.7 6.5 33.3-3.5 18.6 1.2c-6 1.9-1.6 3.9.2 4.7-1.5-5.8 8.4-4.6 6.7 1.7 8.4 4.2 9.3 8.6 9.8 10.1 4.1 2.8 7.6 5.5 7.7 6.3.1 1.7-6.9 4.6-7.9 5-1 .4-5.1.3-7.9-1.2C21.8 25.5.6 17.3 0 27.2c-.2 4.2 13.4 16.7 10.4 27.7-3 1.4-3.1 4.2-2.9 4.5 1.5 1.1 11.1 1 12.8 0 1.6-3.6 1.6-7.9-.8-14.9 1.9 3.6 4.4 4.4 4.2 11.1-2.9 1.8-2.3 3.5-2.2 3.7 1.8 1.1 13 .6 13.9 0 .5-.2 2.5-2.4 2.4-8.5 1.7-4.8 4.2-6.2 6.2-9.3-2.7 8.1-2 5.9-2.8 12.9-2.9 1.2-4.1 4.4-3.6 4.9 1 1 13.7 1.8 16.9 0 13.6-17.2 9.7-33.5 5.3-41.5z"/><ellipse transform="rotate(-25.386 29.42 15.182)" style="fill:#FFFFFF;" cx="29.4" cy="15.2" rx="1" ry="1.2"/><g><path style="fill:#FFFFFF;" d="M86 36.3l2.2.2v3.4h-10v-3.3l1.4-.1c.7 0 1.1-.3 1.1-1.4V12.4c0-1-.2-1.3-1-1.3l-1.6-.1V7.6H86v19.3c3.4-.3 6.8-3.2 6.8-5.5 0-.6-.4-.8-1-.9l-1.2-.1V17h9.2v3.4l-2.1.2c-.3 2.5-1.7 4.9-4.1 6.7l4.5 8.9 2.4.2v3.4h-6.7L89 29.7c-1 .4-1.9.6-3 .8v5.8zM122.4 35.2c0 .9.2 1.2 1 1.3l1.3.1v3.3H118l-.1-2.4h-.1c-1.1 1.6-3.1 3-6.2 3-6.6 0-9.1-4.7-9.1-11 0-8 3.9-13 12-13 1.5 0 4.8.3 8 1.5v17.2zm-5.3-14.1c-.7-.3-2-.6-3.4-.6-4.5 0-5.8 4.1-5.8 8.7 0 3.6.9 7.1 4.7 7.1 2.9 0 4.5-2 4.5-4.1V21.1zM135.3 25.6v10.7l3.6.2v3.4h-11.4v-3.3l1.4-.1c1-.1 1.1-.5 1.1-1.5V21.8c0-.9-.3-1.2-1-1.3l-1.5-.1V17h7.4v3.4c.8-1.9 2.8-4 6.4-4 1.3 0 2.9.2 4.2.9v7.6l-4.5.3v-2.9c0-.8 0-1-.4-1.2-.3-.2-.7-.2-1.3-.2-2.4 0-4 2.1-4 4.7zM150.5 12.4c0-1-.3-1.3-1.1-1.3L148 11V7.6h7.8v12.6c1.6-2.9 4.3-3.8 6.6-3.8 5.3 0 7.1 3.1 7.1 7.7v12.1l2.3.1v3.4h-10v-3.2l1.4-.1c.8-.1 1-.5 1-1.5v-9.6c0-2.7-.6-4.5-3.6-4.5-2.8 0-4.7 2.2-4.7 4.9v10.5l2.2.1v3.4h-10v-3.3l1.3-.1c.9-.1 1.2-.4 1.2-1.5V12.4zM195.7 35c0 1.1.2 1.4 1 1.4l1.3.1v3.3h-7.2v-2.9h-.1c-1.4 2.4-3.9 3.6-6.8 3.6-4.8 0-7.1-2.5-7.1-7.7V21.9c0-1-.3-1.2-1.1-1.3l-1.3-.1V17h7.8v14.5c0 3 .5 4.6 3.5 4.6 2.7 0 4.8-2.1 4.8-5V22c0-1-.3-1.3-1.1-1.4l-1.2-.1V17h7.7v18z"/><g><path style="fill:#FFFFFF;" d="M86.1 48.3v7.1h-.8v-3.3h-3.7v3.3h-.8v-7.1h.8v3h3.7v-3h.8zM98.5 48.3h4v.7h-3.1v2.4h2.7v.7h-2.7v2.5h3.2v.7h-4.1v-7zM114.5 48.3h.8v6.4h3.2v.7h-4v-7.1zM130.4 54.2c.3.2 1.1.6 1.9.6.7 0 1.5-.2 1.5-1.3 0-.9-.7-1.1-1.6-1.4-1-.3-2-.7-2-2 0-1.2.9-2 2.3-2 1 0 1.8.4 2.3 1l-.5.6c-.6-.5-1.2-.8-1.9-.8-.6 0-1.4.3-1.4 1.2 0 .8.7 1.1 1.6 1.4 1 .3 2 .7 2 2s-.9 2.1-2.4 2.1c-1 0-2-.4-2.3-.7l.5-.7zM146.9 55.4v-7.1h.8v7.1h-.8zM165.6 48.3v7.1h-.9l-3.6-6v6h-.8v-7.1h1l3.6 5.9v-5.9h.7zM180.8 51.1l2.3 4.3h-1l-1.9-3.6-1.4 1.8v1.8h-.8v-7.1h.8v4.2l3.1-4.2h.9l-2 2.8zM194.8 55.4v-7.1h.8v7.1h-.8z"/></g></g></svg>